<svg
  id="Layer_1"
  enable-background="new 0 0 800 800"
  viewBox="0 0 800 800"
  xmlns="http://www.w3.org/2000/svg"
>
  <g>
    <path
      d="m433.7 549.1c-101 0-182.8-81.8-182.8-182.8 0-24.3 4.7-47.4 13.3-68.6-67 27.1-114.2 92.8-114.2 169.5 0 101 81.8 182.8 182.8 182.8 76.7 0 142.3-47.2 169.5-114.2-21.2 8.6-44.4 13.3-68.6 13.3z"
      fill="#ffc60b"
    />
    <path
      d="m467.2 150c-101 0-182.8 81.8-182.8 182.8 0 101 81.8 182.8 182.8 182.8 101 0 182.8-81.8 182.8-182.8v-182.8zm120.3 177.4c0 63.4-51.4 114.8-114.8 114.8-63.4 0-114.8-51.4-114.8-114.8 0-63.4 51.4-114.8 114.8-114.8h114.8z"
      fill="#064E3B"
    />
  </g>
</svg>
